<?xml version="1.0" standalone="no"?><!DOCTYPE svg PUBLIC "-//W3C//DTD SVG 1.1//EN" "http://www.w3.org/Graphics/SVG/1.1/DTD/svg11.dtd"><svg t="1684989317778" class="icon" viewBox="0 0 1024 1024" version="1.1" xmlns="http://www.w3.org/2000/svg" p-id="2376" xmlns:xlink="http://www.w3.org/1999/xlink" width="200" height="200"><path d="M176 416c32 0.64 58.496 11.52 79.488 32.512 20.992 20.992 31.808 47.488 32.512 79.488-0.64 32-11.52 58.496-32.512 79.488-20.992 20.992-47.488 31.808-79.488 32.512-32-0.64-58.496-11.52-79.488-32.512C75.52 586.496 64.704 560 64 528c0.64-32 11.52-58.496 32.512-79.488 20.992-20.992 47.488-31.808 79.488-32.512zM512 416c32 0.64 58.496 11.52 79.488 32.512 20.992 20.992 31.808 47.488 32.512 79.488-0.64 32-11.52 58.496-32.512 79.488C570.496 628.48 544 639.296 512 640c-32-0.64-58.496-11.52-79.488-32.512-20.992-20.992-31.808-47.488-32.512-79.488 0.64-32 11.52-58.496 32.512-79.488C453.504 427.52 480 416.704 512 416z m336 0c32 0.64 58.496 11.52 79.488 32.512 20.992 20.992 31.808 47.488 32.512 79.488-0.64 32-11.52 58.496-32.512 79.488-20.992 20.992-47.488 31.808-79.488 32.512-32-0.64-58.496-11.52-79.488-32.512-20.992-20.992-31.808-47.488-32.512-79.488 0.64-32 11.52-58.496 32.512-79.488 20.992-20.992 47.488-31.808 79.488-32.512z" fill="#707070" fill-opacity=".96" p-id="2377"></path></svg>